<svg width="32" height="32" viewBox="0 0 32 32" fill="none" xmlns="http://www.w3.org/2000/svg"><path d="M16.0926 31.158C24.4641 31.158 31.2505 24.3715 31.2505 16.0001C31.2505 7.62858 24.4641 0.842163 16.0926 0.842163C7.72111 0.842163 0.934692 7.62858 0.934692 16.0001C0.934692 24.3715 7.72111 31.158 16.0926 31.158Z" fill="#3f51b5"></path><path d="M16.8729 21.0428C16.2577 21.137 15.6181 21.1247 14.9754 20.9763C12.2731 20.3525 10.5881 17.6559 11.212 14.9536C11.2581 14.754 11.3199 14.5608 11.3866 14.3717L6.64306 12.4324C6.48319 12.8548 6.35157 13.2874 6.24908 13.7272C4.99377 19.1645 8.38483 24.5913 13.8222 25.8466C15.7285 26.2868 17.632 26.1529 19.3556 25.5627L16.8729 21.0428ZM21.0933 15.4776L14.2122 15.41L25.1613 20.4557C25.4942 19.7749 25.7608 19.0442 25.9389 18.2729C27.1942 12.8356 23.8031 7.40878 18.3658 6.15348C16.1832 5.64959 14.006 5.89596 12.096 6.71969L14.6258 11.2851C15.4715 11.0211 16.3722 10.9874 17.2353 11.1875C19.3522 11.6762 20.8467 13.4386 21.0933 15.4776Z" fill="white"></path></svg>